<svg width="60" height="82" viewBox="0 0 60 82" fill="none" xmlns="http://www.w3.org/2000/svg">
<path d="M14.479 14.0127H45.521V42.7432H14.479V14.0127Z" fill="white"/>
<path d="M30 0C46.1675 0 59.2857 11.8076 59.2857 26.3571C59.2857 49.7857 30 82 30 82C30 82 0.714279 49.7857 0.714279 26.3571C0.714279 11.8076 13.8324 0 30 0ZM30 41C32.3169 41 34.5817 40.313 36.5081 39.0258C38.4345 37.7386 39.936 35.9091 40.8226 33.7686C41.7092 31.6281 41.9412 29.2727 41.4892 27.0004C41.0372 24.728 39.9215 22.6407 38.2832 21.0025C36.645 19.3642 34.5577 18.2485 32.2853 17.7965C30.013 17.3445 27.6576 17.5765 25.5171 18.4631C23.3766 19.3498 21.5471 20.8512 20.2599 22.7776C18.9727 24.704 18.2857 26.9688 18.2857 29.2857C18.2891 32.3915 19.5244 35.3691 21.7205 37.5652C23.9166 39.7613 26.8942 40.9966 30 41Z" fill="#F24E1E"/>
</svg>
