<svg width="54" height="69" viewBox="0 0 54 69" fill="none" xmlns="http://www.w3.org/2000/svg">
<path d="M24.0336 38.889V44.8192C19.3152 44.8192 14.7901 46.6935 11.4538 50.0299C8.11738 53.3663 6.24302 57.8914 6.24302 62.6098H0.312836C0.312836 56.3186 2.81198 50.2852 7.26048 45.8367C11.709 41.3881 17.7425 38.889 24.0336 38.889ZM24.0336 35.9239C14.2043 35.9239 6.24302 27.9626 6.24302 18.1333C6.24302 8.30405 14.2043 0.342773 24.0336 0.342773C33.8629 0.342773 41.8242 8.30405 41.8242 18.1333C41.8242 27.9626 33.8629 35.9239 24.0336 35.9239ZM24.0336 29.9937C30.5865 29.9937 35.894 24.6862 35.894 18.1333C35.894 11.5805 30.5865 6.27296 24.0336 6.27296C17.4807 6.27296 12.1732 11.5805 12.1732 18.1333C12.1732 24.6862 17.4807 29.9937 24.0336 29.9937ZM50.2094 59.8552L41.8242 68.5399L33.4389 59.8552C28.8044 55.0577 28.8044 47.2832 33.4389 42.4857C34.5201 41.3496 35.8209 40.445 37.2624 39.827C38.7038 39.2089 40.2558 38.8902 41.8242 38.8902C43.3925 38.8902 44.9445 39.2089 46.386 39.827C47.8274 40.445 49.1282 41.3496 50.2094 42.4857C54.8439 47.2832 54.8439 55.0577 50.2094 59.8552ZM45.9456 55.7337C48.3563 53.2371 48.3563 49.1038 45.9456 46.6042C45.4176 46.04 44.7793 45.5903 44.0703 45.2829C43.3614 44.9754 42.5969 44.8168 41.8242 44.8168C41.0514 44.8168 40.2869 44.9754 39.578 45.2829C38.869 45.5903 38.2308 46.04 37.7027 46.6042C35.2921 49.1038 35.2921 53.2371 37.7027 55.7367L41.8242 60.0005L45.9456 55.7337Z" fill="#4596D0"/>
</svg>
